<?xml version="1.0" encoding="utf-8"?>
<!-- Svg Vector Icons : http://www.onlinewebfonts.com/icon -->
<!DOCTYPE svg PUBLIC "-//W3C//DTD SVG 1.1//EN" "http://www.w3.org/Graphics/SVG/1.1/DTD/svg11.dtd">
<svg version="1.1" xmlns="http://www.w3.org/2000/svg" xmlns:xlink="http://www.w3.org/1999/xlink" x="0px" y="0px" viewBox="0 0 1000 1000" enable-background="new 0 0 1000 1000" xml:space="preserve">
<metadata> Svg Vector Icons : http://www.onlinewebfonts.com/icon </metadata>
<g><g><path d="M321,662.9c34.8,87,177.4,150.6,264.9,105.3c32.5,76.7,41.3,253-130.6,200.6c-0.5,0.2-7.5-2.6-14.3-8.1c38.6,8.9,76.9-20.5,76.9-61.2c0-34.6-28.2-62.8-62.8-62.8c-89.7,0-79.9,138.8,15.1,151.3c39.3,5.2,69.3-0.1,91.9-12.3c80.9-43.9,54.1-139.7,36.6-211.4c13.2-9.2,76.2-37.5,88.8-101.3c15-112.3-58.2-156.6-145.7-147.8l-24.8-112.7c28-24,55.9-49.5,76.1-80.6c61.8-94.6,49.4-216.2-20-305.3c-6.9-8.8-18.9-8.7-25.9,0c-77.1,95.9-79,172.7-70.1,232.7c3.8,23.2,9.5,46.4,12.4,69.7c-22.4,19.6-46.8,40.7-70.1,64.1C349.3,455.8,285.1,558.1,321,662.9z M593,748.6c-13.7-62.3-26-118.1-39.5-179.4C665.4,567.7,677,699,593,748.6z M522,121.7c12.6-26,28.1-56.1,53.5-49.7c36.5,9.2,44.8,67.4,25.8,118.6c-17.7,47.9-53.5,76.5-61.1,86.1c-14.3,18-29,31.9-42.2,35.7C490.5,272.4,494.2,178.9,522,121.7z M505.3,412.1l22.8,103.1c-92.8,16.3-138.6,141.8-49.9,184.1c10.1,4.8,11.1,2.2,3.8-6.2c-37.9-44.2-9.9-120.1,58-123.9c14.2,64.3,26.8,121.7,41,185.7c-83.6,39-190.4,5.4-218.5-88.8c-3.6-5.3-3.9-11-4-17.1C339.7,533.6,429.7,475.3,505.3,412.1z"/></g><g></g><g></g><g></g><g></g><g></g><g></g><g></g><g></g><g></g><g></g><g></g><g></g><g></g><g></g><g></g></g>
</svg>